<?xml version="1.0" standalone="no"?>
<!DOCTYPE svg PUBLIC "-//W3C//DTD SVG 20010904//EN"
 "http://www.w3.org/TR/2001/REC-SVG-20010904/DTD/svg10.dtd">
<svg version="1.0" xmlns="http://www.w3.org/2000/svg"
 width="1080.000000pt" height="1080.000000pt" viewBox="0 0 1080.000000 1080.000000"
 preserveAspectRatio="xMidYMid meet">
<metadata>
Created by potrace 1.16, written by Peter Selinger 2001-2019
</metadata>
<g transform="translate(0.000000,1080.000000) scale(0.100000,-0.100000)"
fill="#000000" stroke="none">
<path d="M5424 9409 c-3 -5 -54 -872 -54 -916 0 -5 109 -15 243 -22 133 -6
286 -15 340 -18 l97 -6 0 56 c0 51 -2 57 -22 61 -13 3 -133 10 -268 16 -135 7
-246 13 -248 15 -1 1 0 69 4 150 l7 148 136 -7 c75 -3 179 -9 232 -13 l96 -6
7 53 c4 29 5 54 3 57 -3 2 -106 10 -231 17 -124 7 -228 15 -230 17 -7 6 9 268
16 275 7 6 433 -12 489 -21 25 -4 27 -2 32 53 3 31 5 58 3 59 -6 6 -648 38
-652 32z"/>
<path d="M4288 9132 c-26 -9 -49 -20 -52 -23 -3 -3 3 -32 14 -64 11 -32 20
-64 20 -71 0 -7 -24 -20 -54 -28 l-55 -16 16 -48 c9 -26 17 -49 19 -51 2 -2
24 4 50 13 26 9 51 16 55 16 5 0 38 -91 73 -202 36 -112 77 -220 91 -240 51
-75 152 -98 257 -58 28 11 66 34 84 51 l33 32 -31 38 -31 38 -29 -24 c-16 -13
-46 -30 -67 -36 -45 -13 -83 0 -112 41 -16 21 -123 337 -131 388 -2 11 22 23
87 45 50 16 91 31 93 32 7 6 -22 87 -33 91 -6 3 -44 -7 -84 -21 -41 -14 -82
-25 -90 -25 -11 0 -22 21 -36 67 -11 36 -24 67 -30 69 -5 1 -31 -5 -57 -14z"/>
<path d="M6237 8767 c-59 -177 -107 -327 -107 -333 0 -8 91 -44 113 -44 3 0
35 90 72 201 73 219 95 256 170 290 49 23 86 24 153 4 99 -30 151 -101 138
-192 -4 -33 -100 -341 -133 -429 -5 -13 106 -49 117 -37 20 22 143 421 148
479 8 101 -34 186 -117 238 -93 59 -230 75 -315 38 l-44 -20 14 40 c8 22 14
44 14 48 0 8 -84 40 -104 40 -6 0 -60 -145 -119 -323z"/>
<path d="M5135 8875 c-5 -2 -77 -13 -158 -26 l-149 -22 7 -51 c4 -28 9 -53 10
-54 3 -4 348 47 352 52 1 1 -1 24 -5 51 -7 49 -22 63 -57 50z"/>
<path d="M3833 8759 c-50 -9 -115 -41 -166 -82 -40 -31 -97 -119 -97 -149 0
-29 -19 -20 -37 17 -9 19 -21 35 -26 35 -14 0 -97 -51 -97 -60 0 -10 327 -580
341 -594 9 -10 98 32 105 49 3 6 -40 89 -95 184 -110 191 -129 245 -111 310
21 80 135 171 213 171 82 0 127 -47 251 -264 120 -211 103 -194 165 -161 28
16 50 34 49 40 -8 30 -218 383 -251 420 -61 70 -153 102 -244 84z"/>
<path d="M7758 8527 l-107 -161 -12 47 c-22 88 -93 167 -196 215 -49 23 -71
27 -143 27 -74 0 -92 -4 -143 -30 -110 -55 -199 -185 -212 -309 -5 -48 -2 -76
15 -131 19 -60 31 -78 89 -135 86 -87 152 -114 258 -108 l72 5 -29 -43 -30
-42 51 -32 c28 -19 54 -29 58 -24 8 8 517 772 534 800 4 7 -15 26 -46 46 l-52
35 -107 -160z m-369 -3 c71 -21 142 -90 160 -157 43 -151 -86 -327 -238 -327
-98 0 -205 82 -231 176 -33 119 45 266 165 308 53 19 81 19 144 0z"/>
<path d="M3110 8225 c-175 -49 -306 -233 -285 -401 14 -112 103 -235 212 -290
51 -25 69 -29 148 -29 79 0 97 3 150 29 77 38 158 120 193 193 23 50 27 71 27
148 0 111 -20 160 -100 244 -95 100 -224 139 -345 106z m166 -130 c44 -18 101
-71 130 -120 84 -145 -9 -328 -180 -351 -92 -13 -211 57 -255 151 -91 194 106
402 305 320z"/>
<path d="M8145 7749 c-209 -138 -383 -254 -387 -258 -13 -12 257 -405 308
-450 95 -83 190 -121 305 -121 130 0 248 50 344 146 136 136 164 349 69 536
-22 43 -231 366 -253 390 -3 4 -177 -105 -386 -243z m444 -52 c103 -156 124
-208 125 -307 0 -61 -5 -86 -26 -132 -77 -166 -276 -250 -443 -187 -79 29
-157 109 -253 257 l-72 113 287 189 c159 105 291 190 294 190 3 0 43 -56 88
-123z"/>
<path d="M2556 7671 c-27 -62 -34 -138 -16 -185 12 -33 8 -33 -44 4 l-43 29
-32 -51 c-18 -28 -28 -54 -24 -59 11 -10 573 -379 577 -379 9 0 68 101 63 107
-4 3 -82 56 -174 117 -140 93 -172 119 -197 160 -40 65 -41 132 -4 204 l27 52
-44 30 c-24 16 -48 30 -53 30 -5 0 -21 -26 -36 -59z"/>
<path d="M2041 7288 c-5 -13 -59 -149 -120 -302 -62 -153 -108 -282 -104 -286
10 -8 839 -340 851 -340 7 0 47 95 47 113 0 6 -210 96 -327 140 -14 5 -6 34
68 216 46 116 84 215 84 219 0 8 -99 47 -104 41 -2 -2 -41 -99 -87 -216 l-84
-211 -151 59 -152 60 98 242 97 242 -46 22 c-58 28 -60 28 -70 1z"/>
<path d="M8603 6850 c-111 -23 -211 -97 -259 -192 -77 -151 -14 -401 123 -488
26 -17 49 -30 52 -30 4 0 18 21 33 45 l27 45 -28 15 c-104 53 -161 244 -104
351 21 40 85 104 103 104 5 0 27 -57 49 -127 22 -71 59 -190 83 -267 23 -76
48 -140 54 -143 6 -2 37 6 70 18 81 31 173 122 200 199 89 259 -139 526 -403
470z m196 -143 c56 -28 98 -87 113 -159 13 -64 4 -112 -35 -169 -30 -45 -88
-84 -98 -67 -4 7 -35 102 -69 212 -50 160 -59 200 -48 207 19 13 86 1 137 -24z"/>
<path d="M8785 5976 l-330 -175 2 -62 c1 -34 5 -65 10 -69 9 -8 689 -250 704
-250 5 0 9 25 9 56 0 65 31 48 -295 163 -126 45 -243 87 -258 94 -28 12 -23
16 242 152 245 127 271 142 271 165 0 38 -12 100 -19 100 -3 0 -154 -79 -336
-174z"/>
<path d="M2139 5970 c-104 -18 -201 -92 -248 -190 -23 -48 -26 -68 -26 -155 0
-81 4 -109 22 -147 105 -228 428 -274 598 -85 65 71 88 140 89 262 1 90 -2
106 -28 162 -15 34 -39 71 -51 83 l-24 23 -40 -33 -41 -32 23 -31 c38 -51 52
-97 52 -167 0 -86 -25 -148 -80 -199 -36 -33 -119 -71 -130 -59 -1 2 1 129 7
282 7 226 7 281 -4 287 -15 10 -55 10 -119 -1z m30 -272 c-1 -84 -4 -185 -8
-225 l-6 -71 -38 13 c-95 33 -147 108 -147 213 0 35 6 77 14 95 26 63 107 126
164 127 22 0 22 -1 21 -152z"/>
<path d="M8694 5350 c-101 -20 -197 -98 -243 -195 -59 -126 -54 -288 14 -391
15 -24 17 -24 43 -9 66 40 65 37 37 96 -46 99 -26 226 46 304 43 46 110 79
150 73 l25 -3 -44 -278 c-25 -153 -42 -281 -38 -284 3 -4 43 -7 89 -7 152 -1
259 59 318 180 44 90 52 209 20 295 -42 110 -149 195 -275 218 -67 12 -83 12
-142 1z m290 -219 c78 -113 39 -272 -83 -333 -56 -29 -111 -37 -111 -16 0 14
58 384 65 416 l6 23 49 -27 c27 -15 60 -43 74 -63z"/>
<path d="M1865 5148 c3 -13 9 -41 13 -62 7 -38 10 -40 62 -52 30 -6 164 -36
298 -64 196 -43 241 -56 230 -66 -7 -7 -119 -85 -248 -174 -129 -89 -236 -163
-237 -164 -7 -6 26 -120 35 -119 6 2 147 98 314 215 167 116 304 212 306 213
1 1 -4 31 -11 66 l-13 64 -374 82 c-206 45 -376 82 -378 83 -1 0 0 -10 3 -22z"/>
<path d="M8315 4608 c-24 -68 -35 -102 -31 -105 5 -6 887 -310 910 -315 14 -2
23 10 38 50 11 30 16 57 12 62 -8 6 -908 320 -920 320 -3 0 -7 -6 -9 -12z"/>
<path d="M2400 4408 c-173 -67 -316 -122 -318 -123 -5 -4 41 -115 49 -115 8 0
642 240 648 246 9 8 -37 109 -50 111 -8 1 -156 -53 -329 -119z"/>
<path d="M2744 4265 l-26 -35 30 -25 c33 -27 62 -81 62 -114 0 -39 -64 -88
-233 -180 -92 -50 -169 -91 -172 -91 -3 0 -20 30 -39 68 -56 109 -55 108 -104
83 -23 -12 -42 -24 -42 -28 0 -3 21 -44 46 -90 25 -47 44 -86 42 -87 -1 -1
-30 -17 -63 -35 -33 -19 -61 -35 -63 -36 -4 -4 36 -84 50 -102 7 -8 25 -2 69
23 34 19 64 34 67 34 4 0 20 -23 35 -50 30 -54 30 -54 94 -12 l22 14 -24 49
c-14 26 -25 50 -25 53 0 2 76 45 169 95 208 113 243 138 270 193 26 55 27 92
0 162 -21 58 -96 146 -123 146 -8 0 -27 -16 -42 -35z"/>
<path d="M8314 4271 c-142 -36 -255 -164 -283 -317 -28 -155 54 -305 206 -376
202 -95 418 3 498 225 24 65 24 167 0 237 -26 78 -126 178 -210 210 -65 24
-161 34 -211 21z m152 -138 c68 -23 146 -102 163 -165 32 -113 -36 -247 -144
-288 -108 -41 -264 24 -322 134 -25 46 -23 150 4 201 61 116 174 161 299 118z"/>
<path d="M1840 4210 c-28 -28 -34 -63 -16 -99 21 -40 50 -54 92 -47 97 19 79
166 -21 166 -22 0 -43 -8 -55 -20z"/>
<path d="M7629 3844 l-44 -46 129 -123 129 -122 -63 -11 c-82 -15 -155 -57
-206 -120 -125 -151 -108 -355 40 -489 78 -71 144 -97 241 -97 65 0 90 4 135
25 121 57 210 178 213 288 0 28 3 51 6 51 3 0 21 -15 41 -34 l35 -35 40 46 39
46 -199 194 c-110 106 -266 256 -346 333 l-146 139 -44 -45z m316 -418 c103
-48 176 -169 159 -263 -15 -81 -76 -158 -150 -189 -108 -45 -246 12 -309 128
-66 122 -18 265 110 324 64 31 126 31 190 0z"/>
<path d="M2887 3689 c-194 -164 -230 -205 -246 -277 -27 -125 80 -297 234
-379 92 -48 103 -47 125 10 17 45 17 49 2 54 -64 21 -127 61 -171 109 -56 61
-77 114 -67 168 8 39 61 109 81 104 6 -2 50 -48 96 -103 150 -177 242 -213
356 -138 118 76 113 239 -9 365 -55 56 -114 88 -165 88 l-37 0 33 34 33 34
-37 41 c-21 23 -40 41 -44 41 -3 0 -86 -68 -184 -151z m227 -81 c85 -26 169
-143 152 -213 -10 -40 -53 -75 -93 -75 -54 0 -84 22 -172 126 -79 94 -81 97
-64 117 48 54 101 67 177 45z"/>
<path d="M3470 3254 c-11 -4 -14 -17 -12 -57 l4 -52 56 0 c69 -1 139 -32 193
-86 50 -50 69 -90 76 -154 6 -53 -11 -125 -28 -125 -6 0 -112 75 -236 167
l-225 166 -19 -24 c-34 -44 -69 -124 -78 -180 -25 -151 55 -291 208 -366 48
-24 68 -28 141 -28 71 0 94 4 143 27 71 34 146 109 184 185 24 51 28 69 28
148 0 79 -3 97 -29 150 -33 67 -101 139 -169 178 -72 42 -182 66 -237 51z m53
-420 c95 -70 174 -129 177 -131 13 -12 -69 -63 -117 -74 -166 -37 -323 142
-259 296 8 19 18 35 21 35 3 0 83 -57 178 -126z"/>
<path d="M7103 3041 c-124 -46 -225 -147 -258 -258 -7 -24 14 -37 76 -50 24
-4 28 -1 34 25 11 51 68 115 131 149 73 38 128 48 185 33 50 -13 119 -57 119
-75 0 -6 -106 -76 -235 -154 -129 -78 -237 -146 -240 -150 -10 -18 79 -124
136 -161 139 -90 312 -67 436 56 68 68 97 141 98 239 0 69 -5 89 -32 147 -39
82 -96 145 -165 183 -70 39 -204 46 -285 16z m366 -361 c1 -84 -60 -170 -144
-206 -81 -34 -186 -13 -242 48 l-23 24 193 117 192 117 12 -27 c7 -16 12 -48
12 -73z"/>
<path d="M4216 2673 c-91 -198 -116 -236 -171 -269 -49 -28 -126 -32 -182 -9
-19 8 -39 15 -43 15 -10 0 -51 -100 -45 -110 9 -14 100 -34 151 -33 29 1 66 9
82 17 17 9 34 16 37 16 3 0 -6 -23 -20 -50 l-25 -50 57 -25 c44 -20 58 -23 65
-13 4 7 8 16 8 19 0 4 54 123 121 265 67 143 129 278 139 301 l19 42 -56 26
c-30 14 -57 25 -58 25 -1 0 -37 -75 -79 -167z"/>
<path d="M6593 2781 c-23 -9 -44 -19 -47 -22 -3 -3 23 -84 58 -181 35 -96 67
-195 71 -220 14 -94 -34 -178 -125 -217 l-50 -21 21 -53 c11 -28 23 -54 25
-57 8 -8 110 49 134 75 12 13 32 45 45 71 l22 47 18 -52 c19 -57 20 -57 96
-22 l36 16 -117 325 c-72 198 -123 326 -131 327 -8 0 -33 -6 -56 -16z"/>
<path d="M4555 2659 c-33 -10 -71 -28 -85 -38 -26 -21 -24 -34 19 -90 l19 -25
61 28 c116 52 269 32 374 -48 173 -131 181 -402 16 -550 -149 -134 -405 -110
-530 50 l-26 33 -51 -31 -50 -32 29 -42 c82 -119 249 -190 429 -182 202 10
353 118 422 303 19 49 23 81 23 175 0 112 -1 117 -37 193 -62 129 -179 224
-323 262 -82 21 -215 19 -290 -6z"/>
<path d="M5840 2603 c-63 -24 -82 -109 -35 -153 17 -16 37 -24 60 -24 105 0
118 156 15 178 -14 3 -32 2 -40 -1z"/>
</g>
</svg>
