<svg xmlns="http://www.w3.org/2000/svg" version="1.1" xmlns:xlink="http://www.w3.org/1999/xlink" xmlns:svgjs="http://svgjs.dev/svgjs" width="1000" height="623" viewBox="0 0 1000 623"><g transform="matrix(1,0,0,1,-0.6060606060606233,0.2522267206477409)"><svg viewBox="0 0 396 247" data-background-color="#F1F0EB" preserveAspectRatio="xMidYMid meet" height="623" width="1000" xmlns="http://www.w3.org/2000/svg" xmlns:xlink="http://www.w3.org/1999/xlink"><g id="tight-bounds" transform="matrix(1,0,0,1,0.2400000000000091,-0.09999999999999432)"><svg viewBox="0 0 395.52 247.2" height="247.2" width="395.52"><g><svg></svg></g><g><svg viewBox="0 0 395.52 247.2" height="247.2" width="395.52"><g transform="matrix(1,0,0,1,75.54432,81.15889645219482)"><svg viewBox="0 0 244.43135999999998 84.88220709561033" height="84.88220709561033" width="244.43135999999998"><g><svg viewBox="0 0 244.43135999999998 84.88220709561033" height="84.88220709561033" width="244.43135999999998"><g><svg viewBox="0 0 244.43135999999998 84.88220709561033" height="84.88220709561033" width="244.43135999999998"><g><svg viewBox="0 0 244.43135999999998 84.88220709561033" height="84.88220709561033" width="244.43135999999998"><g id="textblocktransform"><svg viewBox="0 0 244.43135999999998 84.88220709561033" height="84.88220709561033" width="244.43135999999998" id="textblock"><g><svg viewBox="0 0 244.43135999999998 84.88220709561033" height="84.88220709561033" width="244.43135999999998"><g transform="matrix(1,0,0,1,0,0)"><svg width="244.43135999999998" viewBox="1.4500000476837158 -39.29999923706055 166.27999877929688 57.75" height="84.88220709561033" data-palette-color="#F1F0EB"><path d="M24.55-31.4L24.55-31.4Q22.3-31.4 19.5-29.5L19.5-29.5Q15.8-26.95 12.9-22.75 10-18.55 8.5-13.3L8.5-13.3Q7.6-10.25 7.6-8L7.6-8Q7.6-2.2 10.8 0.5L10.8 0.5Q12.8 2.15 15.2 2.15L15.2 2.15Q20.2 2.15 25.15-1.6L25.15-1.6Q28.35-4.05 30.7-7.1L30.7-7.1Q35.85-13.9 35.85-21.65L35.85-21.65Q35.85-26.95 33.1-31.05L33.1-31.05Q29.65-36.2 23.3-37.5L23.3-37.5Q21.35-37.95 19.45-37.95 17.55-37.95 15.8-37.7L15.8-37.7Q10.05-36.95 7.6-32.75L7.6-32.75Q6-30.1 6-26.8L6-26.8Q6-24.85 6.55-22.65L6.55-22.65Q6.75-21.8 6.3-21.6 5.85-21.4 5.35-22.35L5.35-22.35Q4.1-24.85 4.1-27.48 4.1-30.1 5.9-32.8L5.9-32.8Q9.15-37.7 15.6-38.8L15.6-38.8Q18.85-39.3 20.9-39.3L20.9-39.3Q27.25-39.3 30.8-37.3L30.8-37.3Q36.45-34.15 37.8-28.6L37.8-28.6Q38.5-25.9 38.5-22.85 38.5-19.8 37.48-16.53 36.45-13.25 34.83-10.28 33.2-7.3 30.7-4.6L30.7-4.6Q23.7 3.15 15.5 3.15L15.5 3.15Q12 3.15 9.55 1.35 7.1-0.45 6-3.2L6-3.2Q4.8-6.25 4.8-9.2 4.8-12.15 5.45-14.7 6.1-17.25 7.38-20 8.65-22.75 10.4-24.95 12.15-27.15 14.15-29L14.15-29Q17.85-32.45 22.5-32.8L22.5-32.8Q22.8-32.85 23.05-32.85L23.05-32.85Q24.8-32.85 26.45-31.9L26.45-31.9Q26.8-31.7 26.83-31.5 26.85-31.3 26.6-31.2 26.35-31.1 25.85-31.25 25.35-31.4 24.55-31.4ZM21.4 15.7L21.4 15.7Q17.55 13.5 14.15 10L14.15 10Q12.7 8.55 11.4 7.3L11.4 7.3Q8.45 4.55 5.55 4.55L5.55 4.55Q4.5 4.55 3.43 5.23 2.35 5.9 2.27 6.73 2.2 7.55 1.85 7.5L1.85 7.5Q1.45 7.5 1.45 6.53 1.45 5.55 2.73 4.3 4 3.05 5.55 3.05L5.55 3.05Q9.85 3.05 14.9 7.1L14.9 7.1Q17.1 8.9 19.53 10.78 21.95 12.65 25.53 14.4 29.1 16.15 33.25 16.95L33.25 16.95Q34.7 17.25 35.9 17.25L35.9 17.25Q38.95 17.25 40.05 15.35L40.05 15.35Q40.55 14.5 40.55 13.33 40.55 12.15 39.45 10.55L39.45 10.55Q37.15 7.15 32.35 6.35L32.35 6.35Q31.55 6.25 31.55 5.75L31.55 5.75Q31.55 5.3 32.2 5.4L32.2 5.4Q38.05 6.35 40.7 9.85L40.7 9.85Q41.95 11.6 41.95 12.93 41.95 14.25 41.35 15.3L41.35 15.3Q39.5 18.45 32.88 18.45 26.25 18.45 21.4 15.7ZM47.3-19.45Q46.6-18.85 45.75-18.85 44.9-18.85 44.4-19.45 43.9-20.05 44-20.9L44-20.9Q44.15-21.75 44.85-22.35 45.55-22.95 46.4-22.95 47.25-22.95 47.77-22.35 48.3-21.75 48.15-20.9 48-20.05 47.3-19.45ZM42.4-1.1L42.4-1.1Q43.35-1.1 44.4-2.05L44.4-2.05Q46.25-3.9 49.1-9.6L49.1-9.6Q49.45-10.35 49.8-10.05L49.8-10.05Q49.9-9.95 49.9-9.73 49.9-9.5 49.5-8.63 49.1-7.75 48.77-7.05 48.45-6.35 47.52-4.78 46.6-3.2 45.85-2.35L45.85-2.35Q43.8 0 41.97 0 40.15 0 39.35-1.1 38.55-2.2 38.55-3.55 38.55-4.9 39.2-6.5L39.2-6.5 42.4-14.65Q42.5-14.95 42.5-15.45 42.5-15.95 41.9-16.75L41.9-16.75 44.65-16.8Q45.8-16.8 46-16.38 46.2-15.95 45.7-15.05L45.7-15.05 41.7-5.7Q40.85-3.85 40.85-2.55L40.85-2.55Q40.85-1.1 42.4-1.1ZM53.65-11.05L53.65-11.05Q53.65-12.1 54.5-12.1L54.5-12.1Q57.75-12.1 65.5-11.9L65.5-11.9Q66.35-11.85 66.55-11.25L66.55-11.25Q66.45-10.65 65.7-10.55L65.7-10.55Q61.8-10.55 58.12-10.13 54.45-9.7 54.45-9.7L54.45-9.7Q54.15-9.7 53.9-10.18 53.65-10.65 53.65-11.05ZM81.99-13.6L81.99-13.6Q81.99-16.45 79.64-16.45L79.64-16.45Q79.44-16.45 79.24-16.45L79.24-16.45Q78.34-16.35 78.19-16.8 78.04-17.25 78.64-17.4 79.24-17.55 79.94-17.45L79.94-17.45Q82.54-17.05 83.49-15L83.49-15Q84.14-13.75 84.14-12.55L84.14-12.55Q84.14-8.25 80.99-4.1L80.99-4.1Q77.84 0.1 72.84 0.1L72.84 0.1Q70.99 0.1 69.84-0.95 68.69-2 68.69-3.75L68.69-3.75Q68.69-5.85 71.09-10.85L71.09-10.85Q66.99-3.1 65.79-1.95L65.79-1.95Q65.29-1.5 65.29-2.25L65.29-2.25Q65.29-2.4 65.39-2.6L65.39-2.6Q67.14-4.9 72.37-15.1 77.59-25.3 79.69-28.45L79.69-28.45Q81.39-30.9 82.99-30.9L82.99-30.9Q82.99-30.9 83.04-30.9L83.04-30.9 83.29-30.9Q83.34-30.9 84.17-30.75 84.99-30.6 85.39-30.7L85.39-30.7Q83.74-28.95 80.19-23.7L80.19-23.7Q71.39-10.65 71.39-4.2L71.39-4.2Q71.39-1.55 73.09-1.2L73.09-1.2Q73.24-1.15 73.44-1.15L73.44-1.15Q74.99-1.15 77.32-3.93 79.64-6.7 81.14-10.25L81.14-10.25Q81.99-12.1 81.99-13.6ZM88.89-7.7L88.89-7.7Q88.19-6 88.19-3.9L88.19-3.9Q88.19-2.5 88.82-1.68 89.44-0.85 90.59-0.85L90.59-0.85Q95.14-0.85 98.84-9.4L98.84-9.4Q99.19-10.2 99.69-10.1L99.69-10.1Q99.89-10.05 99.89-9.85 99.89-9.65 98.77-7.23 97.64-4.8 96.49-3.3L96.49-3.3Q93.94 0.2 90.19 0.2L90.19 0.2Q88.19 0.2 86.79-1.1 85.39-2.4 85.39-4.65 85.39-6.9 86.47-9.43 87.54-11.95 89.39-14.13 91.24-16.3 93.64-17.3L93.64-17.3Q94.79-17.8 95.84-17.8 96.89-17.8 97.79-17.2L97.79-17.2Q98.64-16.5 98.64-15.65L98.64-15.65Q98.64-12.65 95.04-9.9L95.04-9.9Q93.94-9.05 91.94-8.38 89.94-7.7 88.89-7.7ZM97.29-15.7L97.29-15.7Q97.29-16.7 96.49-16.7L96.49-16.7Q95.09-16.7 92.24-13.25L92.24-13.25Q90.54-11.15 89.24-8.55L89.24-8.55Q90.09-8.55 91.72-9.15 93.34-9.75 94.54-10.75L94.54-10.75Q97.29-13.1 97.29-15.7ZM101.19-7.7L101.19-7.7Q100.49-6 100.49-3.9L100.49-3.9Q100.49-2.5 101.11-1.68 101.74-0.85 102.89-0.85L102.89-0.85Q107.44-0.85 111.14-9.4L111.14-9.4Q111.49-10.2 111.99-10.1L111.99-10.1Q112.19-10.05 112.19-9.85 112.19-9.65 111.06-7.23 109.94-4.8 108.79-3.3L108.79-3.3Q106.24 0.2 102.49 0.2L102.49 0.2Q100.49 0.2 99.09-1.1 97.69-2.4 97.69-4.65 97.69-6.9 98.76-9.43 99.84-11.95 101.69-14.13 103.54-16.3 105.94-17.3L105.94-17.3Q107.09-17.8 108.14-17.8 109.19-17.8 110.09-17.2L110.09-17.2Q110.94-16.5 110.94-15.65L110.94-15.65Q110.94-12.65 107.34-9.9L107.34-9.9Q106.24-9.05 104.24-8.38 102.24-7.7 101.19-7.7ZM109.59-15.7L109.59-15.7Q109.59-16.7 108.79-16.7L108.79-16.7Q107.39-16.7 104.54-13.25L104.54-13.25Q102.84-11.15 101.54-8.55L101.54-8.55Q102.39-8.55 104.01-9.15 105.64-9.75 106.84-10.75L106.84-10.75Q109.59-13.1 109.59-15.7ZM124.14-13.5L124.14-13.5Q124.14-14.85 122.79-14.85L122.79-14.85Q120.79-14.85 118.16-12.58 115.54-10.3 113.79-7.8L113.79-7.8Q113.04-6.35 112.56-4.15 112.09-1.95 112.09-1.1 112.09-0.25 112.39 0L112.39 0 109.24 0Q108.49 0 108.86-1.33 109.24-2.65 109.89-4.2 110.54-5.75 111.51-7.78 112.49-9.8 112.94-10.85L112.94-10.85Q108.84-3.1 107.64-1.95L107.64-1.95Q107.14-1.5 107.14-2.25L107.14-2.25Q107.14-2.4 107.24-2.6L107.24-2.6Q108.99-4.9 114.21-15.1 119.44-25.3 121.54-28.45L121.54-28.45Q123.24-30.9 124.84-30.9L124.84-30.9Q124.84-30.9 124.89-30.9L124.89-30.9 125.14-30.9Q125.19-30.9 126.01-30.75 126.84-30.6 127.24-30.7L127.24-30.7Q125.39-29.3 122.14-24.28 118.89-19.25 116.99-15.48 115.09-11.7 114.44-9.75L114.44-9.75Q118.99-15.4 122.59-16.75L122.59-16.75Q124.29-17.3 125.29-17.3L125.29-17.3Q127.49-17.3 127.49-15.45L127.49-15.45Q127.49-14.85 127.24-14.1L127.24-14.1Q126.54-12.2 124.36-10.68 122.19-9.15 119.59-8.9L119.59-8.9Q118.99-7.5 118.99-6.33 118.99-5.15 119.24-4.2L119.24-4.2Q119.84-1.8 121.49-1.25L121.49-1.25Q121.84-1.15 122.19-1.15L122.19-1.15Q123.59-1.15 125.49-2.9L125.49-2.9Q127.04-4.6 129.54-9.75L129.54-9.75Q129.89-10.4 130.09-10.18 130.29-9.95 130.29-9.75 130.29-9.55 129.54-7.8 128.79-6.05 127.44-3.95L127.44-3.95Q124.59 0.35 121.14 0.35L121.14 0.35Q119.04 0.35 117.89-0.85L117.89-0.85Q116.24-2.55 116.24-5.3L116.24-5.3Q116.24-6.7 116.99-8.15 117.74-9.6 118.74-9.7L118.74-9.7Q118.89-9.7 119.04-9.7L119.04-9.7Q120.79-9.7 122.46-11.05 124.14-12.4 124.14-13.5ZM144.63-13.55Q143.73-12.65 142.08-9.47 140.43-6.3 140.11-4.73 139.78-3.15 139.78-2.18 139.78-1.2 140.53-1.2L140.53-1.2Q141.48-1.2 142.88-2.95L142.88-2.95Q144.93-5.5 146.93-9.6L146.93-9.6Q147.13-10.05 147.38-10.1L147.38-10.1Q147.78-10.25 147.78-9.8L147.78-9.8Q147.78-9.55 147.63-9.2L147.63-9.2Q143.03 0.1 139.88 0.1L139.88 0.1Q138.43 0.1 137.53-1.3L137.53-1.3Q137.08-2.05 137.08-3.3 137.08-4.55 137.58-6.35L137.58-6.35Q133.58 0.1 130.68 0.1L130.68 0.1Q129.88 0.1 129.23-0.4L129.23-0.4Q127.73-1.45 127.73-4L127.73-4Q127.73-8.9 131.98-13.95L131.98-13.95Q134.38-16.75 137.88-17.6L137.88-17.6Q138.83-17.85 139.68-17.85L139.68-17.85Q141.98-17.85 143.58-16.25L143.58-16.25Q144.08-15.7 143.88-15.2 143.68-14.7 143.03-14.8L143.03-14.8Q142.48-16.6 140.63-16.6L140.63-16.6Q138.48-16.6 135.33-13.2L135.33-13.2Q133.53-11.2 131.98-8.5L131.98-8.5Q130.03-5.25 130.03-3.3 130.03-1.35 131.28-1.35L131.28-1.35Q134.28-1.35 139.13-10.55L139.13-10.55Q140.08-12.4 140.73-13.08 141.38-13.75 142.38-13.75L142.38-13.75Q142.58-13.75 143.41-13.6 144.23-13.45 144.63-13.55L144.63-13.55ZM139.98 15.8L139.98 15.8Q137.78 15.8 136.58 14.88 135.38 13.95 135.38 12.65 135.38 11.35 136.13 9.7L136.13 9.7Q137.43 7.15 140.83 5.6L140.83 5.6Q143.38 4.4 147.58 3.38 151.78 2.35 152.98 2L152.98 2Q154.78-1.15 157.28-9.25L157.28-9.25Q154.38-4.15 152.43-2.1 150.48-0.05 148.48-0.05L148.48-0.05Q145.78-0.05 145.33-2.3L145.33-2.3Q145.13-2.65 145.23-3.35 145.33-4.05 145.36-4.35 145.38-4.65 145.68-5.33 145.98-6 146.08-6.3L146.08-6.3Q146.63-7.45 147.03-8.1L147.03-8.1Q146.23-8.1 146.58-8.9L146.58-8.9 147.48-10.65Q149.18-13.9 150.28-16.15L150.28-16.15Q150.78-17.2 152.23-17.2L152.23-17.2 155.28-17.2Q155.18-17.1 154.78-16.8L154.78-16.8Q153.88-16.2 153.43-15.4L153.43-15.4Q151.63-12.3 148.93-6.55L148.93-6.55Q147.83-4.2 147.83-3.1 147.83-2 148.21-1.55 148.58-1.1 149.23-1.1L149.23-1.1Q150.18-1.1 151.88-3.1L151.88-3.1Q155.43-7.25 159.73-16.15L159.73-16.15Q160.28-17.2 161.68-17.2L161.68-17.2 164.38-17.2Q163.08-16.3 162.33-14.93 161.58-13.55 160.71-11.2 159.83-8.85 158.51-4.95 157.18-1.05 156.48 0.9L156.48 0.9Q161.18-0.5 163.68-4.05L163.68-4.05Q164.78-5.6 166.83-9.55L166.83-9.55Q167.18-10.25 167.46-10.1 167.73-9.95 167.73-9.7 167.73-9.45 166.91-7.78 166.08-6.1 165.23-4.67 164.38-3.25 163.03-1.75 161.68-0.25 160.03 0.63 158.38 1.5 155.63 2.5L155.63 2.5Q151.78 9.5 147.88 12.8L147.88 12.8Q144.23 15.8 139.98 15.8ZM137.08 10.85L137.08 10.85Q136.53 11.95 136.53 12.88 136.53 13.8 137.23 14.3 137.93 14.8 138.98 14.8L138.98 14.8Q141.88 14.8 145.18 11.83 148.48 8.85 150.98 5.45L150.98 5.45 152.08 3.6Q143.83 5.75 141.68 6.7L141.68 6.7Q138.48 8.1 137.08 10.85Z" opacity="1" transform="matrix(1,0,0,1,0,0)" fill="#F1F0EB" class="undefined-text-0" data-fill-palette-color="primary" id="text-0"></path></svg></g></svg></g></svg></g></svg></g></svg></g></svg></g></svg></g><g><path d="M0 123.6c0-68.262 55.338-123.6 123.6-123.6 49.507 0 92.215 29.106 111.947 71.14l-4.244 0c-19.449-39.855-60.37-67.312-107.703-67.313-66.149 0-119.773 53.624-119.773 119.773 0 66.149 53.624 119.773 119.773 119.773 47.333 0 88.253-27.457 107.703-67.313l4.244 0c-19.732 42.033-62.44 71.14-111.947 71.14-68.262 0-123.6-55.338-123.6-123.6z" fill="#F1F0EB" stroke="transparent" data-fill-palette-color="tertiary"></path></g></svg></g><defs></defs></svg><rect width="395.52" height="247.2" fill="none" stroke="none" visibility="hidden"></rect></g></svg></g></svg>